General
Complete name : Transporter.3.(Hindi.Dubbed)DVDRip.
Format : AVI
Format/Info : Audio Video Interleave
File size : 758 MiB
Duration : 1h 43mn
Overall bit rate : 1 019 Kbps
Writing library : MPlayer

Video
ID : 0
Format : MPEG-4 Visual
Format profile : Simple@L1
Format settings, BVOP : No
Format settings, QPel : No
Format settings, GMC : No warppoints
Format settings, Matrix : Default (H.263)
Codec ID : DX50
Codec ID/Hint : DivX 5
Duration : 1h 43mn
Bit rate : 895 Kbps
Width : 650 pixels
Height : 302 pixels
Display aspect ratio : 2.2:1
Frame rate : 25.000 fps
Color space : YUV
Chroma subsampling : 4:2:0
Bit depth : 8 bits
Scan type : Interlaced
Scan order : Top Field First
Bits/(Pixel*Frame) : 0.182
Stream size : 666 MiB (88%)
Writing library : Lavc52.30.1

Audio :HINDI
ID : 1
Format : MPEG Audio
Format version : Version 1
Format profile : Layer 3
Mode : Joint stereo
Mode extension : MS Stereo
Codec ID : 55
Codec ID/Hint : MP3
Duration : 1h 43mn
Bit rate mode : Constant
Bit rate : 112 Kbps
Channel(s) : 2 channels
Sampling rate : 44.1 KHz
Stream size : 83.3 MiB (11%)
Alignment : Aligned on interleaves
Interleave, duration : 26 ms (0.65 video frame)
Interleave, preload duration : 809 ms
Writing library : LAME3.98.2

IMDb>>>>>http://www.imdb.com/title/tt1129442/